<svg id="Layer_1" data-name="Layer 1" xmlns="http://www.w3.org/2000/svg">
    <defs>
        <style>
            .cls-1 {
                fill: none;
            }
        </style>
    </defs>
    <title>logo_oficial</title>
    <line x1="93.42" y1="425.23" x2="760.26" y2="425.23" />
    <rect x="93.42" y="422.01" width="666.83" height="6.44" />
    <path d="M254.63,707.4H235.71l3.39-19.26H258L264,654.47h21.94L280,688.14h18.93l-3.4,19.26H276.58L265.71,769H243.77Z"
        transform="translate(-134.5 -366.52)" />
    <path
        d="M296.84,728.34c4.16-23.62,26.17-42.05,50.63-42.05,24.63,0,40.17,18.26,36,42.05-4.22,23.95-26.23,42.37-50.69,42.37S292.62,752.29,296.84,728.34Zm64.13.17c2.24-12.74-4.9-21.61-17.13-21.61s-22.37,9-24.58,21.61c-2.25,12.72,4.7,21.77,16.93,21.77C348.59,750.28,358.73,741.23,361,728.51Z"
        transform="translate(-134.5 -366.52)" />
    <rect x="16" y="103" width="370" height="161" fill="white"/>
    <path
        d="M392.48,726.49c4-22.6,23.31-40,45.25-40,9.55,0,17,3.18,21.61,8.55l1.21-6.87h21.78l-13.52,76.71c-4.26,24.12-25.16,40-50.95,40-17.26,0-29.54-6.36-35.44-17.58l16.36-13.91c4.7,7.54,11.56,11.39,22.45,11.39,13.57,0,23.39-7.2,25.57-19.59l1.18-6.7a38.4,38.4,0,0,1-24.43,8.37C401.61,766.86,388.43,749.44,392.48,726.49Zm62.45.17c2.1-11.89-4.3-20.26-16.36-20.26S417,714.94,414.9,726.66c-2,11.56,4.46,20.27,16.52,20.27S452.84,738.55,454.93,726.66Z"
        transform="translate(-134.5 -366.52)" />
    <path
        d="M489.11,728.51c4.23-24,26-42.22,50-42.22,23.12,0,36.86,17.09,32.76,40.37a47.29,47.29,0,0,1-2.86,9.55l-59.17.17c.91,10,7.75,15.91,19,15.91a30.74,30.74,0,0,0,21.41-8.37l10.62,12.89a50.27,50.27,0,0,1-35.11,13.9C500.43,770.71,484.8,753,489.11,728.51ZM512.73,720h39.2c-.41-10.05-5.83-15.41-16-15.41C525.47,704.72,517.09,710.42,512.73,720Z"
        transform="translate(-134.5 -366.52)" />
    <path d="M598.87,707.4H579.94l3.39-19.26h18.93l5.94-33.67h21.95l-5.94,33.67h18.93l-3.4,19.26H620.81L609.94,769H588Z"
        transform="translate(-134.5 -366.52)" />
    <path
        d="M662.62,647.94h21.94l-8.41,47.74a36.6,36.6,0,0,1,24.57-9.22c18.43,0,29.23,12.9,26,31.33l-9,51.25H695.71l8.18-46.4c1.69-9.55-3.83-16.24-13.38-16.24a19.4,19.4,0,0,0-19.12,16.24L663.21,769H641.27Z"
        transform="translate(-134.5 -366.52)" />
    <path
        d="M737.19,728.51c4.23-24,26-42.22,50-42.22,23.11,0,36.86,17.09,32.75,40.37a46.65,46.65,0,0,1-2.86,9.55l-59.16.17c.91,10,7.75,15.91,19,15.91a30.74,30.74,0,0,0,21.41-8.37l10.63,12.89a50.29,50.29,0,0,1-35.12,13.9C748.51,770.71,732.88,753,737.19,728.51ZM760.82,720H800c-.4-10.05-5.82-15.41-16-15.41C773.55,704.72,765.18,710.42,760.82,720Z"
        transform="translate(-134.5 -366.52)" />
    <path
        d="M840.29,688.14h22l-1.27,7.2a31.06,31.06,0,0,1,22.5-8.88c7.88,0,13.64,2.51,17.66,8.21l-16.52,15.75c-2.21-2.68-5.15-4-9.68-4-9.54,0-16.94,5.86-19.07,17.92L848,769H826Z"
        transform="translate(-134.5 -366.52)" />
    <polygon
        points="797.01 437.54 788.08 427.85 751.56 388.26 742.36 378.29 740.44 391.73 732.86 445.05 731 458.1 742.44 451.55 751.6 446.3 756.12 460.81 758.04 466.96 764.19 465.05 773.64 462.11 779.79 460.19 777.88 454.04 773.36 439.52 783.88 438.64 797.01 437.54" />
    <path
        d="M599.51,594.49H588l-.84-13.9h-.67c-4.69,10.38-13.73,15.91-26.13,15.91-17.25,0-26.47-10.89-26.47-31.16v-52.6h13.07v52.1c0,13.06,5.69,19.6,16.58,19.6,13.57,0,23-10.22,23-24.46V512.74h13.07Z"
        transform="translate(-134.5 -366.52)" />
    <path
        d="M641.89,568.52V524.3H621V512.74h21.61l2-28.82H655v28.82h37V524.3H655v42.55q0,17.58,15.07,17.59c10.22,0,15.25-5.87,15.25-17.59v-6H698v7.7c0,17.93-10,28-28.15,28C651.94,596.5,641.89,586.45,641.89,568.52Z"
        transform="translate(-134.5 -366.52)" />
    <path
        d="M722.8,582.93h28.14V524.3H722.8V512.74H764v70.19h28.14v11.56H722.8Zm21.44-98a11.39,11.39,0,1,1,11.39,11.39A11.1,11.1,0,0,1,744.24,484.93Z"
        transform="translate(-134.5 -366.52)" />
    <path
        d="M816.61,512.74h11.55l.84,13.9h.67c4.69-10.38,13.74-15.91,26.14-15.91,17.25,0,26.46,10.89,26.46,31.16v52.6H869.21v-52.1c0-13.07-5.7-19.6-16.59-19.6-13.57,0-23,10.22-23,24.46v47.24H816.61Z"
        transform="translate(-134.5 -366.52)" />
    <path
        d="M904.89,609.9c0-9.72,5.19-16.08,15.07-19.1v-.67c-6.7-1.84-10.89-6.7-10.89-13.57S912.93,564,920,560.65V560c-7.2-4.52-11.05-12.06-11.05-22,0-17.25,11.89-27.3,32.33-27.3q11.31,0,19.09,4l.51-.17c2.68-9.71,10.89-15.58,22.95-15.58h5v12.9h-6.36c-7.54,0-12.9,2.51-15.75,7.54,4.53,4.52,6.87,10.89,6.87,18.59,0,17.26-11.9,27.31-32.33,27.31a44.64,44.64,0,0,1-12.9-1.67c-4.19,2.17-6.7,5.52-6.7,9.88,0,5,3.52,7.87,9.38,7.87h18.76c22.62,0,33.51,8.21,33.51,24.8,0,18.25-13.41,27.13-40.38,27.13C917.28,633.35,904.89,625.14,904.89,609.9Zm65-3.52c0-9-6.7-13.06-22.11-13.06h-7.2c-14.24,0-22.28,4.85-22.28,14.07,0,9.38,8,14.07,25.13,14.07C961.17,621.46,969.88,616.43,969.88,606.38ZM960.33,538c0-9.71-7-15.41-19.09-15.41s-19.1,5.7-19.1,15.41,7,15.42,19.1,15.42S960.33,547.75,960.33,538Z"
        transform="translate(-134.5 -366.52)" />
    <path
        d="M153.83,469.6v32.22h12.89v6.44H150.61V630.67H440.54V512.74h11.55l.84,13.9h.67c4-10.22,12.4-15.91,24.79-15.91,20.78,0,32.67,16.42,32.67,42.88,0,26.31-12.06,42.89-32.5,42.89-11.72,0-20.1-5.53-24.29-15.08h-.67v49.25h67.48V469.6Zm40.46,126.9c-23.12,0-35.52-15.08-35.52-42.89s12.4-42.88,35.52-42.88c18.43,0,30,9.55,33.84,27.3H214.22c-3-9.88-9.71-15.24-19.93-15.24-14.41,0-21.95,10.55-21.95,30.82s7.54,30.83,21.95,30.83c10.22,0,16.92-5.36,19.93-15.41H228.3C224.44,586.78,212.72,596.5,194.29,596.5Zm91.63,0c-23.12,0-35.51-15.08-35.51-42.89s12.39-42.88,35.51-42.88,35.51,15.08,35.51,42.88S309,596.5,285.92,596.5Zm132-2H405.7V535.35c0-8.54-2.69-12.56-8.55-12.56-7.2,0-11.56,6.37-11.56,16.58v55.12H374.53V535.35q0-12.55-8.54-12.56c-7.2,0-11.56,6.2-11.56,16.58v55.12H342.2V512.74h10.06l.67,10h.67q4-12.06,15.57-12.06c7.71,0,12.4,3.85,14.58,12.06h.67c2.85-8,8.54-12.06,16.75-12.06,11.39,0,16.75,7.87,16.75,24.79Z"
        transform="translate(-134.5 -366.52)" />
    <ellipse cx="151.42" cy="187.09" rx="21.95" ry="30.82" />
    <path
        d="M476.22,584.44c13.57,0,21.27-10.89,21.27-30.83s-7.7-30.82-21.27-30.82S453.6,533.51,453.6,551.6v4C453.6,573.71,462.65,584.44,476.22,584.44Z"
        transform="translate(-134.5 -366.52)" />
    <polygon
        points="19.33 103.09 19.33 67.65 32.21 67.65 32.21 61.21 0 61.21 0 67.65 12.89 67.65 12.89 135.3 0 135.3 0 141.74 16.11 141.74 16.11 103.09 19.33 103.09" />
    <path class="cls-1"
        d="M322.42,394.23c0-2.43-1.71-4.33-4.74-4.33H312v8.66h5.73C320.71,398.56,322.42,396.94,322.42,394.23Z"
        transform="translate(-134.5 -366.52)" />
    <path class="cls-1"
        d="M294.19,394.23c0-2.43-1.71-4.33-4.74-4.33h-5.73v8.66h5.73C292.48,398.56,294.19,396.94,294.19,394.23Z"
        transform="translate(-134.5 -366.52)" />
    <path class="cls-1"
        d="M294.19,394.23c0-2.43-1.71-4.33-4.74-4.33h-5.73v8.66h5.73C292.48,398.56,294.19,396.94,294.19,394.23Z"
        transform="translate(-134.5 -366.52)" />
    <path class="cls-1"
        d="M322.42,394.23c0-2.43-1.71-4.33-4.74-4.33H312v8.66h5.73C320.71,398.56,322.42,396.94,322.42,394.23Z"
        transform="translate(-134.5 -366.52)" />

    <rect x="73.34" y="3" width="152.75" height="50" fill="white"/>
    <path d="M294.19,394.23c0-2.43-1.71-4.33-4.74-4.33h-5.73v8.66h5.73C292.48,398.56,294.19,396.94,294.19,394.23Z"
        transform="translate(-134.5 -366.52)" />
    <path d="M322.42,394.23c0-2.43-1.71-4.33-4.74-4.33H312v8.66h5.73C320.71,398.56,322.42,396.94,322.42,394.23Z"
        transform="translate(-134.5 -366.52)" />
    
    <path
        d="M364.84,366.52H207a8.05,8.05,0,0,0-8.06,8.05V402l-12.88,32.22H364.84a8.06,8.06,0,0,0,8.05-8.06V374.57A8.05,8.05,0,0,0,364.84,366.52ZM245.49,404.39c0,7.35-5.37,12.67-12.86,12.67s-12.91-5.36-12.91-12.72V384.89h6.14v19.63a6.49,6.49,0,0,0,6.77,6.86c3.88,0,6.68-2.62,6.68-6.82V384.89h6.18Zm27.28-14.08H257.65v7.85H272v5.46H257.65v13h-6.13V384.89h21.25Zm22.14,26.3-10.15-13.26h-1v13.26h-6.13V384.89H290c6.14,0,10.29,3.88,10.29,9.25,0,5-3.34,8.44-8.52,9.12l10.6,13.35Zm28.24,0L313,403.35h-1v13.26h-6.13V384.89h12.41c6.13,0,10.29,3.88,10.29,9.25,0,5-3.34,8.44-8.53,9.12l10.6,13.35ZM350.79,406c0,6.73-4.24,11.1-10.78,11.1a10.36,10.36,0,0,1-8.71-4.1l4.15-4a5.22,5.22,0,0,0,4.51,2.39c2.85,0,4.65-1.81,4.65-5.05V384.89h6.18Z"
        transform="translate(-134.5 -366.52)" />
    
    <rect x="810.19" y="309.25" width="112.75" height="50" fill="white"/>
    <path
        d="M1057.44,675.77H944.69a8.05,8.05,0,0,0-8.05,8.06v27.38l-12.89,32.21h133.69a8.05,8.05,0,0,0,8.06-8V683.83A8.06,8.06,0,0,0,1057.44,675.77Zm-79.39,50.1H955.72v-3.52l12-12.5c2.54-2.66,3.58-4.37,3.58-6.41,0-2.61-1.9-4.24-4.63-4.24s-4.86,1.4-6.72,4.51l-4.22-3.56a12.37,12.37,0,0,1,11.26-6.5c6.27,0,10.35,3.88,10.35,9.66,0,3.92-1.31,6.27-5.13,10.15l-7,7.08h12.8Zm16.65.45c-7.53,0-13.44-6.5-13.44-16.38s5.82-16.29,13.35-16.29S1008,700.11,1008,710,1002.15,726.32,994.7,726.32Zm38.4-.45h-22.34v-3.52l12-12.5c2.55-2.66,3.59-4.37,3.59-6.41,0-2.61-1.9-4.24-4.63-4.24s-4.86,1.4-6.72,4.51l-4.22-3.56a12.37,12.37,0,0,1,11.26-6.5c6.26,0,10.35,3.88,10.35,9.66,0,3.92-1.32,6.27-5.13,10.15l-7,7.08h12.8Zm15,0H1042v-26.4h-6.27v-5.32h12.35Z"
        transform="translate(-134.5 -366.52)" />
    <path
        d="M994.61,699.25c-4.31,0-7.13,3.56-7.13,10.69s2.82,10.83,7.13,10.83,7.13-3.61,7.13-10.78S998.93,699.25,994.61,699.25Z"
        transform="translate(-134.5 -366.52)" />
</svg>