<svg id="Layer_1" data-name="Layer 1" xmlns="http://www.w3.org/2000/svg" viewBox="0 0 532 500">
    <defs>
        <style>
            .cls-1 {
                fill: none;
            }
        </style>
    </defs>
    <rect x="152" y="186" width="207" height="2" />
    <path d="M160.29,160.82h-5.87l1.05-6h5.88l1.84-10.45H170l-1.84,10.45H174l-1.05,6H167.1L163.73,180h-6.81Z" />
    <path
        d="M173.39,167.32a16.21,16.21,0,0,1,15.72-13c7.64,0,12.47,5.66,11.17,13a16.24,16.24,0,0,1-15.74,13.15C177,180.47,172.08,174.75,173.39,167.32Zm19.91.05c.7-4-1.52-6.71-5.32-6.71a7.85,7.85,0,0,0-7.63,6.71c-.7,3.95,1.46,6.76,5.26,6.76A7.87,7.87,0,0,0,193.3,167.37Z" />
    <path
        d="M203.08,166.74c1.24-7,7.24-12.42,14-12.42a8.58,8.58,0,0,1,6.71,2.65l.37-2.13H231l-4.2,23.81c-1.32,7.49-7.8,12.43-15.81,12.43-5.36,0-9.17-2-11-5.46L205,181.3c1.46,2.34,3.59,3.54,7,3.54,4.21,0,7.26-2.24,7.93-6.08l.37-2.08a11.94,11.94,0,0,1-7.58,2.6C205.92,179.28,201.82,173.87,203.08,166.74Zm19.39.06c.65-3.69-1.34-6.29-5.08-6.29A7.41,7.41,0,0,0,210,166.8c-.63,3.58,1.39,6.29,5.13,6.29A7.33,7.33,0,0,0,222.47,166.8Z" />
    <path
        d="M233.08,167.37a16.07,16.07,0,0,1,15.52-13.1c7.17,0,11.44,5.3,10.16,12.53a14.2,14.2,0,0,1-.88,3l-18.37.05c.28,3.12,2.41,4.94,5.89,4.94a9.52,9.52,0,0,0,6.65-2.6l3.3,4a15.63,15.63,0,0,1-10.91,4.31C236.59,180.47,231.74,175,233.08,167.37Zm7.33-2.65h12.17c-.13-3.12-1.81-4.79-5-4.79A7.82,7.82,0,0,0,240.41,164.72Z" />
    <path d="M267.15,160.82h-5.88l1.06-6h5.87l1.85-10.45h6.81L275,154.84h5.87l-1.05,6H274L270.59,180h-6.82Z" />
    <path
        d="M286.94,142.36h6.81l-2.61,14.82a11.35,11.35,0,0,1,7.63-2.86c5.72,0,9.07,4,8.06,9.72L304,180h-6.81l2.54-14.4c.52-3-1.19-5-4.16-5a6,6,0,0,0-5.93,5L287.12,180h-6.81Z" />
    <path
        d="M310.09,167.37a16.07,16.07,0,0,1,15.52-13.1c7.17,0,11.44,5.3,10.17,12.53a14.93,14.93,0,0,1-.89,3l-18.37.05c.28,3.12,2.41,4.94,5.89,4.94a9.52,9.52,0,0,0,6.65-2.6l3.3,4a15.61,15.61,0,0,1-10.9,4.31C313.6,180.47,308.75,175,310.09,167.37Zm7.33-2.65h12.17c-.13-3.12-1.81-4.79-5-4.79A7.83,7.83,0,0,0,317.42,164.72Z" />
    <path
        d="M342.09,154.84h6.82l-.4,2.23a9.69,9.69,0,0,1,7-2.75,6.17,6.17,0,0,1,5.48,2.55l-5.13,4.88a3.56,3.56,0,0,0-3-1.24c-3,0-5.27,1.82-5.93,5.56L344.48,180h-6.82Z" />
    <polygon
        points="370.41 190.82 367.64 187.81 356.3 175.53 353.44 172.43 352.85 176.6 350.5 193.15 349.92 197.2 353.47 195.17 356.31 193.54 357.72 198.05 358.31 199.96 360.22 199.36 363.15 198.45 365.06 197.85 364.47 195.94 363.07 191.44 366.33 191.16 370.41 190.82" />
    <path
        d="M267.35,125.77h-3.59l-.26-4.32h-.21c-1.45,3.22-4.26,4.94-8.11,4.94-5.36,0-8.22-3.38-8.22-9.67V100.39H251v16.17c0,4.06,1.77,6.09,5.15,6.09,4.21,0,7.12-3.18,7.12-7.6V100.39h4.06Z" />
    <path
        d="M280.5,117.71V104H274v-3.59h6.71l.62-8.94h3.23v8.94h11.49V104H284.56v13.21q0,5.46,4.68,5.46c3.17,0,4.73-1.82,4.73-5.46v-1.88h3.95v2.4c0,5.56-3.12,8.68-8.73,8.68S280.5,123.27,280.5,117.71Z" />
    <path
        d="M305.62,122.18h8.74V104h-8.74v-3.59h12.79v21.79h8.74v3.59H305.62Zm6.66-30.42a3.54,3.54,0,1,1,3.53,3.53A3.44,3.44,0,0,1,312.28,91.76Z" />
    <path
        d="M334.74,100.39h3.59l.26,4.32h.2c1.46-3.23,4.27-4.94,8.12-4.94,5.35,0,8.21,3.38,8.21,9.67v16.33h-4.05V109.59c0-4-1.77-6.08-5.15-6.08-4.21,0-7.13,3.17-7.13,7.59v14.67h-4.05Z" />
    <path
        d="M362.14,130.55c0-3,1.62-5,4.68-5.93v-.2a4.24,4.24,0,0,1-3.38-4.22,5.39,5.39,0,0,1,3.38-4.94v-.21a7.57,7.57,0,0,1-3.43-6.81c0-5.35,3.69-8.47,10-8.47a12.87,12.87,0,0,1,5.93,1.24l.15-.05c.83-3,3.38-4.83,7.13-4.83h1.56v4h-2c-2.34,0-4,.78-4.89,2.34a7.86,7.86,0,0,1,2.13,5.77c0,5.36-3.69,8.48-10,8.48a14,14,0,0,1-4-.52,3.43,3.43,0,0,0-2.08,3.07c0,1.56,1.1,2.44,2.92,2.44h5.82c7,0,10.4,2.55,10.4,7.7,0,5.67-4.16,8.42-12.53,8.42C366,137.83,362.14,135.28,362.14,130.55Zm20.18-1.09c0-2.81-2.08-4.06-6.86-4.06h-2.24c-4.42,0-6.92,1.51-6.92,4.37s2.5,4.37,7.8,4.37C379.62,134.14,382.32,132.58,382.32,129.46Zm-3-21.22c0-3-2.19-4.78-5.93-4.78s-5.93,1.77-5.93,4.78,2.18,4.79,5.93,4.79S379.36,111.26,379.36,108.24Z" />
    <path
        d="M129,87V97h4v2h-5v38h90V100.39h3.59l.26,4.32h.2c1.25-3.18,3.85-4.94,7.7-4.94,6.45,0,10.14,5.09,10.14,13.31s-3.74,13.31-10.09,13.31a7.7,7.7,0,0,1-7.54-4.68h-.21V137H243V87Zm12.56,39.39c-7.18,0-11-4.68-11-13.31s3.85-13.31,11-13.31c5.72,0,9.31,3,10.5,8.47h-4.31c-.94-3.07-3-4.73-6.19-4.73-4.47,0-6.81,3.28-6.81,9.57s2.34,9.57,6.81,9.57c3.17,0,5.25-1.67,6.19-4.79h4.37C150.92,123.38,147.28,126.39,141.56,126.39Zm28.44,0c-7.17,0-11-4.68-11-13.31s3.85-13.31,11-13.31,11,4.68,11,13.31S177.18,126.39,170,126.39Zm41-.62h-3.8V107.41c0-2.65-.83-3.9-2.65-3.9-2.24,0-3.59,2-3.59,5.15v17.11h-3.43V107.41q0-3.9-2.65-3.9c-2.24,0-3.59,1.92-3.59,5.15v17.11h-3.8V100.39h3.12l.21,3.12H191c.83-2.5,2.45-3.74,4.84-3.74s3.85,1.19,4.52,3.74h.21a5.11,5.11,0,0,1,5.2-3.74c3.54,0,5.2,2.44,5.2,7.69Z" />
    <ellipse cx="170" cy="113.08" rx="6.81" ry="9.57" />
    <path
        d="M229.08,122.65c4.21,0,6.6-3.38,6.6-9.57s-2.39-9.57-6.6-9.57-7,3.33-7,8.95v1.24C222.05,119.32,224.86,122.65,229.08,122.65Z" />
    <polygon points="129 87 129 76 133 76 133 74 123 74 123 76 127 76 127 97 123 97 123 99 128 99 128 87 129 87" />
    <path class="cls-1" d="M181.33,63.6a1.33,1.33,0,0,0-1.47-1.34h-1.78V65h1.78A1.29,1.29,0,0,0,181.33,63.6Z" />
    <path class="cls-1" d="M172.57,63.6a1.33,1.33,0,0,0-1.47-1.34h-1.78V65h1.78A1.29,1.29,0,0,0,172.57,63.6Z" />
    <path class="cls-1" d="M172.57,63.6a1.33,1.33,0,0,0-1.47-1.34h-1.78V65h1.78A1.29,1.29,0,0,0,172.57,63.6Z" />
    <path class="cls-1" d="M181.33,63.6a1.33,1.33,0,0,0-1.47-1.34h-1.78V65h1.78A1.29,1.29,0,0,0,181.33,63.6Z" />
    <path d="M172.57,63.6a1.33,1.33,0,0,0-1.47-1.34h-1.78V65h1.78A1.29,1.29,0,0,0,172.57,63.6Z" />
    <path d="M181.33,63.6a1.33,1.33,0,0,0-1.47-1.34h-1.78V65h1.78A1.29,1.29,0,0,0,181.33,63.6Z" />
    <path
        d="M194.5,55h-49a2.5,2.5,0,0,0-2.5,2.5V66l-4,10h55.5a2.5,2.5,0,0,0,2.5-2.5v-16A2.5,2.5,0,0,0,194.5,55ZM157.45,66.75a4,4,0,0,1-8,0v-6h1.91v6.1a2,2,0,0,0,2.1,2.13,2,2,0,0,0,2.07-2.12V60.7h1.92Zm8.47-4.37h-4.69v2.44h4.45v1.7h-4.45v4h-1.91V60.7h6.6Zm6.87,8.17-3.15-4.12h-.32v4.12h-1.9V60.7h3.85a2.92,2.92,0,0,1,3.19,2.88,2.78,2.78,0,0,1-2.65,2.82l3.3,4.15Zm8.77,0-3.15-4.12h-.33v4.12h-1.9V60.7H180a2.92,2.92,0,0,1,3.2,2.88,2.78,2.78,0,0,1-2.65,2.82l3.29,4.15Zm8.58-3.3a3.19,3.19,0,0,1-3.35,3.44,3.23,3.23,0,0,1-2.7-1.27l1.29-1.24a1.62,1.62,0,0,0,1.4.75,1.38,1.38,0,0,0,1.44-1.57V60.7h1.92Z" />
    <path
        d="M409.5,151h-35a2.5,2.5,0,0,0-2.5,2.5V162l-4,10h41.5a2.5,2.5,0,0,0,2.5-2.5v-16A2.5,2.5,0,0,0,409.5,151Zm-24.64,15.55h-6.94v-1.09l3.74-3.88c.79-.83,1.11-1.36,1.11-2a1.3,1.3,0,0,0-1.44-1.32,2.34,2.34,0,0,0-2.08,1.4l-1.31-1.1a3.84,3.84,0,0,1,3.49-2,2.93,2.93,0,0,1,3.21,3c0,1.22-.4,1.94-1.59,3.15l-2.17,2.2h4Zm5.16.14c-2.33,0-4.17-2-4.17-5.08s1.81-5.06,4.15-5.06,4.14,2,4.14,5.07S392.34,166.69,390,166.69Zm11.92-.14H395v-1.09l3.73-3.88c.79-.83,1.12-1.36,1.12-2a1.3,1.3,0,0,0-1.44-1.32,2.37,2.37,0,0,0-2.09,1.4l-1.31-1.1a3.85,3.85,0,0,1,3.5-2,2.93,2.93,0,0,1,3.21,3c0,1.22-.41,1.94-1.59,3.15L398,164.9h4Zm4.65,0H404.7v-8.19h-1.94V156.7h3.83Z" />
    <path d="M390,158.29c-1.34,0-2.22,1.1-2.22,3.32S388.66,165,390,165s2.21-1.12,2.21-3.35S391.34,158.29,390,158.29Z" />
</svg>