<svg id="Layer_1" data-name="Layer 1" xmlns="http://www.w3.org/2000/svg" viewBox="0 0 532 500">
    <defs>
        <style>
            .cls-2 {
                fill: #fff;
            }
        </style>
    </defs>
    <path d="M160.79,367.82h-5.88l1.06-6h5.87l1.85-10.45h6.81l-1.84,10.45h5.87l-1.05,6H167.6L164.23,387h-6.81Z" />
    <path
        d="M173.89,374.32a16.21,16.21,0,0,1,15.72-13.05c7.64,0,12.47,5.66,11.17,13.05A16.24,16.24,0,0,1,185,387.47C177.45,387.47,172.58,381.75,173.89,374.32Zm19.91.05c.7-3.95-1.52-6.71-5.32-6.71a7.85,7.85,0,0,0-7.63,6.71c-.7,3.95,1.46,6.76,5.26,6.76A7.87,7.87,0,0,0,193.8,374.37Z" />
    <path
        d="M203.58,373.74c1.24-7,7.24-12.42,14-12.42a8.58,8.58,0,0,1,6.71,2.65l.37-2.13h6.76l-4.2,23.81c-1.32,7.49-7.8,12.43-15.81,12.43-5.36,0-9.17-2-11-5.46l5.08-4.32c1.46,2.34,3.59,3.54,7,3.54,4.21,0,7.25-2.24,7.93-6.08l.37-2.08a11.94,11.94,0,0,1-7.58,2.6C206.42,386.28,202.32,380.87,203.58,373.74Zm19.39.06c.65-3.69-1.34-6.29-5.08-6.29a7.41,7.41,0,0,0-7.35,6.29c-.63,3.58,1.39,6.29,5.13,6.29A7.33,7.33,0,0,0,223,373.8Z" />
    <path
        d="M233.58,374.37a16.07,16.07,0,0,1,15.52-13.1c7.17,0,11.44,5.3,10.16,12.53a14.2,14.2,0,0,1-.88,3l-18.37.05c.28,3.12,2.41,4.94,5.89,4.94a9.52,9.52,0,0,0,6.65-2.6l3.29,4a15.59,15.59,0,0,1-10.9,4.31C237.09,387.47,232.24,382,233.58,374.37Zm7.33-2.65h12.17c-.13-3.12-1.81-4.79-5-4.79A7.82,7.82,0,0,0,240.91,371.72Z" />
    <path d="M267.65,367.82h-5.88l1.06-6h5.87l1.85-10.45h6.81l-1.85,10.45h5.88l-1.05,6h-5.88L271.09,387h-6.82Z" />
    <path
        d="M287.44,349.36h6.81l-2.61,14.82a11.35,11.35,0,0,1,7.63-2.86c5.72,0,9.07,4,8.06,9.72L304.52,387h-6.81l2.54-14.4c.52-3-1.19-5-4.16-5a6,6,0,0,0-5.93,5L287.62,387h-6.81Z" />
    <path
        d="M310.59,374.37a16.07,16.07,0,0,1,15.52-13.1c7.17,0,11.44,5.3,10.17,12.53a14.93,14.93,0,0,1-.89,3l-18.37.05c.28,3.12,2.41,4.94,5.89,4.94a9.52,9.52,0,0,0,6.65-2.6l3.3,4A15.61,15.61,0,0,1,322,387.47C314.1,387.47,309.25,382,310.59,374.37Zm7.33-2.65h12.17c-.13-3.12-1.81-4.79-5-4.79A7.83,7.83,0,0,0,317.92,371.72Z" />
    <path
        d="M342.59,361.84h6.82l-.4,2.23a9.69,9.69,0,0,1,7-2.75,6.17,6.17,0,0,1,5.48,2.55l-5.13,4.88a3.56,3.56,0,0,0-3-1.24c-3,0-5.27,1.82-5.93,5.56L345,387h-6.82Z" />
    <rect x="152.5" y="393" width="207" height="2" />
    <polygon class="cls-2"
        points="357.4 399.05 351.7 402.32 354.64 381.65 368.79 397 362.24 397.55 364.31 404.19 359.47 405.7 357.4 399.05" />
    <polygon
        points="370.91 397.82 368.13 394.81 356.8 382.53 353.94 379.43 353.35 383.6 351 400.15 350.42 404.2 353.97 402.17 356.81 400.54 358.22 405.05 358.81 406.96 360.72 406.36 363.65 405.45 365.56 404.85 364.97 402.94 363.57 398.44 366.83 398.16 370.91 397.82" />
    <path
        d="M267.85,332.77h-3.59l-.26-4.32h-.21c-1.45,3.22-4.26,4.94-8.11,4.94-5.36,0-8.22-3.38-8.22-9.67V307.39h4.06v16.17c0,4.06,1.77,6.09,5.15,6.09,4.21,0,7.12-3.18,7.12-7.6V307.39h4.06Z" />
    <path
        d="M281,324.71V311h-6.5v-3.59h6.71l.62-8.94h3.23v8.94h11.49V311H285.06v13.21q0,5.46,4.68,5.46c3.17,0,4.73-1.82,4.73-5.46v-1.88h3.95v2.4c0,5.56-3.12,8.68-8.73,8.68S281,330.27,281,324.71Z" />
    <path
        d="M306.12,329.18h8.74V311h-8.74v-3.59h12.79v21.79h8.74v3.59H306.12Zm6.66-30.42a3.54,3.54,0,1,1,3.53,3.53A3.44,3.44,0,0,1,312.78,298.76Z" />
    <path
        d="M335.24,307.39h3.59l.26,4.32h.2c1.46-3.23,4.27-4.94,8.12-4.94,5.35,0,8.21,3.38,8.21,9.67v16.33h-4.05V316.59c0-4-1.77-6.08-5.15-6.08-4.21,0-7.13,3.17-7.13,7.59v14.67h-4.05Z" />
    <path
        d="M362.64,337.55c0-3,1.62-5,4.68-5.93v-.2a4.24,4.24,0,0,1-3.38-4.22,5.39,5.39,0,0,1,3.38-4.94v-.21a7.57,7.57,0,0,1-3.43-6.81c0-5.35,3.69-8.47,10-8.47a12.87,12.87,0,0,1,5.93,1.24L380,308c.83-3,3.38-4.83,7.13-4.83h1.56v4h-2c-2.34,0-4,.78-4.89,2.34a7.86,7.86,0,0,1,2.13,5.77c0,5.36-3.69,8.48-10,8.48a14,14,0,0,1-4-.52,3.43,3.43,0,0,0-2.08,3.07c0,1.56,1.1,2.44,2.92,2.44h5.82c7,0,10.4,2.55,10.4,7.7,0,5.67-4.16,8.42-12.53,8.42C366.49,344.83,362.64,342.28,362.64,337.55Zm20.18-1.09c0-2.81-2.08-4.06-6.86-4.06h-2.24c-4.42,0-6.92,1.51-6.92,4.37s2.5,4.37,7.8,4.37C380.12,341.14,382.82,339.58,382.82,336.46Zm-3-21.22c0-3-2.19-4.78-5.93-4.78s-5.93,1.77-5.93,4.78,2.18,4.79,5.93,4.79S379.86,318.26,379.86,315.24Z" />
    <path
        d="M129.5,294v10h4v2h-5v38h90V307.39h3.59l.26,4.32h.2c1.25-3.18,3.85-4.94,7.7-4.94,6.45,0,10.14,5.09,10.14,13.31s-3.74,13.31-10.09,13.31a7.7,7.7,0,0,1-7.54-4.68h-.21V344H243.5V294Zm12.56,39.39c-7.18,0-11-4.68-11-13.31s3.85-13.31,11-13.31c5.72,0,9.31,3,10.5,8.47h-4.31c-.94-3.07-3-4.73-6.19-4.73-4.47,0-6.81,3.28-6.81,9.57s2.34,9.57,6.81,9.57c3.17,0,5.25-1.67,6.19-4.79h4.36C151.42,330.38,147.78,333.39,142.06,333.39Zm28.44,0c-7.17,0-11-4.68-11-13.31s3.85-13.31,11-13.31,11,4.68,11,13.31S177.68,333.39,170.5,333.39Zm41-.62h-3.8V314.41c0-2.65-.83-3.9-2.65-3.9-2.24,0-3.59,2-3.59,5.15v17.11H198V314.41q0-3.9-2.65-3.9c-2.24,0-3.59,1.92-3.59,5.15v17.11H188V307.39h3.12l.21,3.12h.21c.83-2.5,2.44-3.74,4.84-3.74s3.85,1.19,4.52,3.74h.21a5.11,5.11,0,0,1,5.2-3.74c3.54,0,5.2,2.44,5.2,7.69Z" />
    <ellipse cx="170.5" cy="320.08" rx="6.81" ry="9.57" />
    <path
        d="M229.57,329.65c4.22,0,6.61-3.38,6.61-9.57s-2.39-9.57-6.61-9.57-7,3.33-7,8.95v1.24C222.55,326.32,225.36,329.65,229.57,329.65Z" />
    <polygon
        points="129.5 294 129.5 283 133.5 283 133.5 281 123.5 281 123.5 283 127.5 283 127.5 304 123.5 304 123.5 306 128.5 306 128.5 294 129.5 294" />
    <path
        d="M280.52,408H225.37a3.93,3.93,0,0,0-3.94,3.94v25.21a3.93,3.93,0,0,0,3.94,3.94h55.15a3.93,3.93,0,0,0,3.94-3.94V423.76l6.3-15.76Zm-38.08,23.5H231.51v-1.72l5.89-6.11c1.24-1.3,1.75-2.14,1.75-3.14a2,2,0,0,0-2.27-2.07c-1.37,0-2.37.68-3.28,2.21l-2.07-1.75a6.07,6.07,0,0,1,5.51-3.17c3.07,0,5.06,1.89,5.06,4.72,0,1.92-.64,3.07-2.51,5l-3.42,3.47h6.27Zm8.14.22c-3.69,0-6.57-3.17-6.57-8s2.84-8,6.53-8,6.53,3.15,6.53,8S254.22,431.72,250.58,431.72Zm18.78-.22H258.44v-1.72l5.88-6.11c1.25-1.3,1.76-2.14,1.76-3.14a2.05,2.05,0,0,0-2.27-2.07c-1.38,0-2.38.68-3.29,2.21l-2.06-1.75a6.06,6.06,0,0,1,5.51-3.17c3.06,0,5.06,1.89,5.06,4.72,0,1.92-.64,3.07-2.51,5l-3.42,3.47h6.26Zm7.33,0h-3V418.59h-3.06V416h6Z" />
    <path
        d="M250.54,418.48c-2.11,0-3.49,1.74-3.49,5.23s1.38,5.3,3.49,5.3,3.48-1.77,3.48-5.28S252.65,418.48,250.54,418.48Z" />
    <path d="M277.05,261.52a2.09,2.09,0,0,0-2.31-2.11h-2.8v4.22h2.8A2,2,0,0,0,277.05,261.52Z" />
    <path d="M263.28,261.52a2.09,2.09,0,0,0-2.31-2.11h-2.8v4.22H261A2,2,0,0,0,263.28,261.52Z" />
    <path
        d="M297.74,248h-77a3.93,3.93,0,0,0-3.93,3.93v13.36L210.53,281h87.21a3.93,3.93,0,0,0,3.93-3.93V251.93A3.93,3.93,0,0,0,297.74,248Zm-58.22,18.47a6.29,6.29,0,0,1-12.57,0V257h3v9.58a3.16,3.16,0,0,0,3.3,3.34,3.11,3.11,0,0,0,3.26-3.32V257h3Zm13.31-6.87h-7.37v3.83h7v2.67h-7v6.34h-3V257h10.37Zm10.8,12.84L258.68,266h-.51v6.47h-3V257h6.05c3,0,5,1.9,5,4.52a4.37,4.37,0,0,1-4.16,4.44l5.17,6.52Zm13.77,0L272.45,266h-.51v6.47h-3V257H275c3,0,5,1.9,5,4.52a4.37,4.37,0,0,1-4.16,4.44l5.18,6.52Zm13.49-5.2c0,3.28-2.07,5.42-5.26,5.42a5.06,5.06,0,0,1-4.25-2l2-1.93a2.53,2.53,0,0,0,2.2,1.16,2.17,2.17,0,0,0,2.26-2.46V257h3Z" />
</svg>