<svg id="Camada_1" data-name="Camada 1" xmlns="http://www.w3.org/2000/svg" xmlns:xlink="http://www.w3.org/1999/xlink">
    <defs>
        <style>
            .cls-1,
            .cls-11,
            .cls-12,
            .cls-6 {
                fill: none;
            }

            .cls-2 {
                fill: #38a3a5;
            }

            .cls-3 {
                fill: #22577a;
            }

            .cls-4 {
                fill: #144a68;
            }

            .cls-5 {
                fill: url(#New_Pattern_Swatch_2);
            }

            .cls-6 {
                stroke: #013e59;
            }

            .cls-11,
            .cls-12,
            .cls-6,
            .cls-8,
            .cls-9 {
                stroke-miterlimit: 10;
            }

            .cls-12,
            .cls-6 {
                stroke-width: 3px;
            }

            .cls-7 {
                fill: #31322d;
            }

            .cls-8,
            .cls-9 {
                fill: #fbf4e6;
            }

            .cls-11,
            .cls-12,
            .cls-8 {
                stroke: #31322d;
            }

            .cls-8 {
                stroke-width: 3.72px;
            }

            .cls-9 {
                stroke: #fff;
            }

            .cls-10 {
                fill: #00ff06;
            }

            .cls-11 {
                stroke-width: 4px;
            }

            .cls-13 {
                font-size: 73.44px;
                font-family: Outfit-Medium, Outfit;
                font-weight: 500;
            }

            .cls-14 {
                letter-spacing: -0.01em;
            }

            .cls-15 {
                letter-spacing: 0em;
            }

            .cls-16 {
                letter-spacing: -0.02em;
            }

            .cls-17 {
                letter-spacing: -0.01em;
            }

            .cls-18 {
                letter-spacing: -0.01em;
            }
        </style>
        <pattern id="New_Pattern_Swatch_2" data-name="New Pattern Swatch 2" width="90.07" height="90.07"
            patternUnits="userSpaceOnUse" viewBox="0 0 90.07 90.07">
            <rect class="cls-1" width="90.07" height="90.07" />
            <polygon class="cls-2"
                points="85.07 105.6 69.53 90.07 85.07 74.53 83.08 72.55 67.55 88.08 52.02 72.55 50.03 74.53 65.57 90.07 50.03 105.6 52.02 107.58 67.55 92.05 83.08 107.58 85.07 105.6" />
            <polygon class="cls-2"
                points="40.03 105.6 24.5 90.07 40.03 74.53 38.05 72.55 22.52 88.08 6.98 72.55 5 74.53 20.53 90.07 5 105.6 6.98 107.58 22.52 92.05 38.05 107.58 40.03 105.6" />
            <polygon class="cls-2"
                points="107.58 60.57 92.05 45.03 107.58 29.5 105.6 27.52 90.07 43.05 74.53 27.52 72.55 29.5 88.08 45.03 72.55 60.57 74.53 62.55 90.07 47.02 105.6 62.55 107.58 60.57" />
            <polygon class="cls-2"
                points="62.55 60.57 47.02 45.03 62.55 29.5 60.57 27.52 45.03 43.05 29.5 27.52 27.52 29.5 43.05 45.03 27.52 60.57 29.5 62.55 45.03 47.02 60.57 62.55 62.55 60.57" />
            <polygon class="cls-2"
                points="17.52 60.57 1.98 45.03 17.52 29.5 15.53 27.52 0 43.05 -15.54 27.52 -17.52 29.5 -1.98 45.03 -17.52 60.57 -15.53 62.55 0 47.02 15.53 62.55 17.52 60.57" />
            <polygon class="cls-2"
                points="85.07 15.53 69.53 0 85.07 -15.53 83.08 -17.52 67.55 -1.98 52.02 -17.52 50.03 -15.53 65.57 0 50.03 15.53 52.02 17.52 67.55 1.98 83.08 17.52 85.07 15.53" />
            <polygon class="cls-2"
                points="40.03 15.53 24.5 0 40.03 -15.53 38.05 -17.52 22.52 -1.98 6.98 -17.52 5 -15.53 20.53 0 5 15.53 6.98 17.52 22.52 1.98 38.05 17.52 40.03 15.53" />
        </pattern>
    </defs>
    <rect class="cls-3" x="-48.39" y="117.4" width="3951.48" height="1864.56" />
    <path class="cls-2"
        d="M3946.76,1945.5c0,16.42,267.59,16.42,267.59,32.83s-267.59,16.42-267.59,32.84,267.59,16.42,267.59,32.82-54.08,13.28-199,21.28c-259.69,14.32-232.17,24.81-529.52,24.81s-297.36-26.48-594.73-26.48-297.35,26.48-594.7,26.48-297.37-26.48-594.66-26.48-297.37,26.48-594.72,26.48-297.31-26.48-594.68-26.48c-289.9,0-297.12,25.17-573,26.44v-255H4188.93c17.63,2.26,25.42,5.69,25.42,11.91,0,16.42-267.59,16.42-267.59,32.85s267.59,16.42,267.59,32.82S3946.76,1929.08,3946.76,1945.5Z" />
    <path class="cls-3"
        d="M3588.77,235.7c-11.54,31.8-34.57,61.26-62.16,89.78h-3547V117.4H780.51q9.12-9.77,17.28-20.44c290.56-.37,292.55-26.48,587.05-26.48,296.53,0,296.53,26.48,593,26.48s296.53-26.48,593.07-26.48S2867.41,97,3163.94,97c225.57,0,279.52-15.32,423-22.67,2.71,14.43,5.34,28.83,7.42,43.11C3600.44,158.83,3602,199.18,3588.77,235.7Z" />
    <path class="cls-3"
        d="M3971.93,73.9V325.48H3526.66c27.56-28.52,50.59-58,62.11-89.78,17.77-49.11,8.84-105.12-1.79-161.41,45.08-2.3,99-3.81,169.89-3.81,58.53,0,104.45.41,142.43,1.18C3927.17,72.21,3950.77,73,3971.93,73.9Z" />
    <path class="cls-3"
        d="M2177.25,1790.2c-25.32,11.12-53.1,19.62-82.41,26.52-111.53,26.25-245.13,29.23-348.16,65.11-95.8,33.36-172.73,98.94-262.75,144.93-102.87,7.81-173.18,18.44-365.17,18.44-302.91,0-302.91-26.48-605.86-26.48-293.88,0-302.62,24.93-579.61,26.4V1982h-2.08V1790.2Z" />
    <path class="cls-4"
        d="M797.79,97q-8.14,10.68-17.28,20.44H-20.35V74.07c50.65-2.31,114.87-3.59,219.07-3.59C495.24,70.48,495.24,97,791.77,97Z" />
    <path class="cls-4"
        d="M780.51,117.4a261.56,261.56,0,0,1-191.43,83,263.27,263.27,0,0,1-39.54-2.95c-5.1-.78-10.16-1.68-15.18-2.76q-3.27-.71-6.53-1.47A328.41,328.41,0,0,0,459.15,186c-111,0-209.08,55.12-268.4,139.5A326,326,0,0,0,133.05,479c-.2,1.73-.36,3.47-.51,5.2a2.21,2.21,0,0,0,0,.37,211.15,211.15,0,0,1-11.11,47.81A212.45,212.45,0,0,1-22.39,665.12V117.4Z" />
    <path class="cls-4"
        d="M3873.3,1790.2v239.39c-1,.08-1.92.14-2.85.23-88.72,6.81-132.4,11.93-239.87,14.15-38.35.8-84.8,1.23-144.33,1.23-24.09,0-46.22-.19-66.71-.49-231.6-3.63-253.73-26-526-26-41.11,0-76.52.51-107.81,1.39-194.27,5.44-229.67,25.09-484.91,25.09-296.37,0-296.37-26.48-592.68-26.48-108.53,0-177.32,3.55-235.48,8,88.07-46,163.32-111.57,257-144.93,127.3-45.3,302.25-38.16,421.22-91.63Z" />
    <path class="cls-4"
        d="M3872.49,71.66V1790.2H2150.09q6.79-3,13.35-6.37c118.83-60.42,159.6-184,265-256.18,104.29-71.38,284.15-98.53,375.12-179.83,89.61-80,82.13-206.69,158.65-294.8,75.34-86.74,241.17-142,303.65-235.09,61.65-91.86,15.42-214.56,64.4-311.18,32.93-65,111.35-121,169.55-181.27,27.56-28.52,50.59-58,62.12-89.78,17.77-49.11,8.83-105.12-1.8-161.41,45.09-2.3,99-3.81,169.89-3.81C3788.58,70.48,3834.5,70.89,3872.49,71.66Z" />
    <polygon class="cls-5" points="3904.14 606 3904.14 1015 2693.79 1015 2693.79 606 3904.14 606" />
    <line class="cls-6" x1="2624.01" y1="1893.9" x2="3872.49" y2="1893.9" />
    <line class="cls-6" x1="2624.01" y1="1742.6" x2="3868.41" y2="1742.6" />
    <line class="cls-6" x1="2624.01" y1="1591.3" x2="3882.69" y2="1591.3" />
    <line class="cls-6" x1="2624.01" y1="1440" x2="3882.69" y2="1440" />
    <line class="cls-6" x1="2624.01" y1="1288.7" x2="3882.69" y2="1288.7" />
    <line class="cls-6" x1="3661.01" y1="1137.4" x2="3661.01" y2="2043.16" />
    <line class="cls-6" x1="3453.61" y1="1137.4" x2="3453.61" y2="2045.2" />
    <line class="cls-6" x1="3246.21" y1="1137.4" x2="3246.21" y2="2037.04" />
    <line class="cls-6" x1="3038.81" y1="1137.4" x2="3038.81" y2="2020.72" />
    <line class="cls-6" x1="2831.41" y1="1137.4" x2="2831.41" y2="2018.68" />
    <polygon class="cls-5" points="958 1190 958 1600 -216.05 1600 -216.05 1190 958 1190" />
    <path class="cls-7"
        d="M256.46,679.36H563.19a45.1,45.1,0,0,1,45.1,45.1V1017a45.1,45.1,0,0,1-45.1,45.1H271.56a45.1,45.1,0,0,1-45.1-45.1V709.36a30,30,0,0,1,30-30Z"
        transform="translate(4.69 -2.23) rotate(0.31)" />
    <path class="cls-8"
        d="M242.95,672.36H549.67a45.1,45.1,0,0,1,45.1,45.1V1004.3a45.1,45.1,0,0,1-45.1,45.1H258a45.1,45.1,0,0,1-45.1-45.1V702.36a30,30,0,0,1,30-30Z"
        transform="translate(4.63 -2.16) rotate(0.31)" />
    <g id="Layer_1-2" data-name="Layer 1-2">
        <path class="cls-7"
            d="M350.61,781.29l-41.75,40.35V966.89H359v40.34l41.76-40.34h33.4l75.16-72.63v-113Zm142,104.9-33.4,32.28H425.77l-29.23,28.24V918.47H359v-121H492.58Z" />
        <rect class="cls-7" x="450.83" y="825.67" width="16.7" height="48.42" />
        <rect class="cls-7" x="404.89" y="825.67" width="16.7" height="48.42" />
    </g>
    <path class="cls-7"
        d="M860,339H3035.15a48.23,48.23,0,0,1,48.23,48.23V1736.77a48.23,48.23,0,0,1-48.23,48.23H875.05a48.23,48.23,0,0,1-48.23-48.23V372.14A33.13,33.13,0,0,1,860,339Z" />
    <path class="cls-9"
        d="M898.51,511.92l2089-1c53.51,0,60.18-42.37,60.18-95.88V368.17a50.05,50.05,0,0,0-50.06-50.05H851.66c-50.16-3.62-50,22.41-50,50.05V415A96.9,96.9,0,0,0,898.51,511.92Z" />
    <path class="cls-9"
        d="M2951.71,1554.46l-2089,1c-53.52,0-60.18,42.36-60.18,95.88v55a41.87,41.87,0,0,0,41.87,41.88H3000.57a48,48,0,0,0,48-48v-48.86A96.9,96.9,0,0,0,2951.71,1554.46Z" />
    <rect class="cls-10" x="804.14" y="437.96" width="2242.38" height="1213.89" />
    <path class="cls-11"
        d="M834.43,318.12h2165a48.23,48.23,0,0,1,48.23,48.23V1705.77a48.23,48.23,0,0,1-48.23,48.23H849.53a48.23,48.23,0,0,1-48.23-48.23V351.24a33.13,33.13,0,0,1,33.13-33.13Z" />
    <line class="cls-11" x1="801.13" y1="435.59" x2="3047.65" y2="436.44" />
    <circle class="cls-7" cx="2898.97" cy="379.39" r="23.13" />
    <path class="cls-7"
        d="M2830.11,358.26A21.14,21.14,0,1,1,2809,379.39a21.16,21.16,0,0,1,21.14-21.13m0-2a23.14,23.14,0,1,0,23.13,23.13,23.13,23.13,0,0,0-23.13-23.13Z" />
    <path class="cls-7"
        d="M2761.24,358.26a21.14,21.14,0,1,1-21.14,21.13,21.16,21.16,0,0,1,21.14-21.13m0-2a23.14,23.14,0,1,0,23.13,23.13,23.13,23.13,0,0,0-23.13-23.13Z" />
    <path class="cls-7"
        d="M939.28,349.79h-4.43l-26.42,26.43,0,0,0,0,28.64,28.64h0l4.42-4.42h0l-22-22V374l19.82-19.82Z" />
    <path class="cls-7" d="M984,400.48l4.42,4.42h0L1017,376.26l0,0,0,0L990.6,349.79h-4.42v4.42L1006,374v4.42l-22,22Z" />
    <line class="cls-11" x1="802.95" y1="1651" x2="3049.46" y2="1651.85" />
    <line class="cls-12" x1="215.58" y1="743.73" x2="595.02" y2="745.77" />
    <polygon class="cls-7"
        points="264.38 690.63 261.77 688.02 244.87 704.93 244.88 704.94 244.87 704.96 261.77 721.87 264.38 719.26 250.07 704.94 264.38 690.63" />
    <polygon class="cls-7"
        points="289.46 719.26 292.07 721.87 308.98 704.96 308.97 704.94 308.98 704.93 292.07 688.02 289.46 690.63 303.78 704.94 289.46 719.26" />
    <circle class="cls-7" cx="549.33" cy="710.94" r="17.01" />
    <path class="cls-7"
        d="M498.68,695.4a15.55,15.55,0,1,1-15.54,15.54,15.56,15.56,0,0,1,15.54-15.54m0-1.47a17,17,0,1,0,17,17,17,17,0,0,0-17-17Z" />
    <path class="cls-7"
        d="M448,695.4a15.55,15.55,0,1,1-15.54,15.54A15.56,15.56,0,0,1,448,695.4m0-1.47a17,17,0,1,0,17,17,17,17,0,0,0-17-17Z" />
    <text class="cls-13" transform="translate(1411.37 401.59)">assis<tspan class="cls-14" x="154.51" y="0">t</tspan>
        <tspan class="cls-15" x="181.25" y="0">a ao vi</tspan>
        <tspan class="cls-16" x="391.8" y="0">v</tspan>
        <tspan x="428.08" y="0">o ao </tspan>
        <tspan class="cls-17" x="582.74" y="0">e</tspan>
        <tspan class="cls-16" x="621.37" y="0">v</tspan>
        <tspan x="657.64" y="0">e</tspan>
        <tspan class="cls-18" x="696.86" y="0">n</tspan>
        <tspan class="cls-14" x="736.89" y="0">t</tspan>
        <tspan x="763.62" y="0">o!</tspan>
    </text>
</svg>