<svg xmlns="http://www.w3.org/2000/svg">
    <defs>
        <style>
            .cls-1 {
                fill: #32332e;
            }

            .cls-2 {
                fill: #fbf4e6;
            }

            .cls-2,
            .cls-3 {
                stroke: #32332e;
                stroke-miterlimit: 30;
                stroke-width: 4.21px;
            }

            .cls-3 {
                fill: #e1dace;
            }
        </style>
    </defs>
    <path class="cls-1"
        d="M298.05,357.59l-16.92-14.1a13.83,13.83,0,0,0-8.86-3.2H246.14a10.38,10.38,0,0,0-10.38,10.38v79.58a10.38,10.38,0,0,0,10.38,10.38H353.41a10.38,10.38,0,0,0,10.38-10.38V368a10.38,10.38,0,0,0-10.38-10.38Z" />
    <path class="cls-1"
        d="M285.39,347c-8.8-7.33-12.2-6.75-12.2-6.75H246.78c-10.92,0-11,10.38-11,10.38v24.22h36.51a13.84,13.84,0,0,0,8.86-3.21l16.92-14.09Z" />
    <path class="cls-2"
        d="M291.91,353.14,275,339.05a13.8,13.8,0,0,0-8.86-3.21H240a10.38,10.38,0,0,0-10.38,10.38v79.59A10.38,10.38,0,0,0,240,436.19H347.28a10.38,10.38,0,0,0,10.38-10.38V363.52a10.38,10.38,0,0,0-10.38-10.38Z" />
    <path class="cls-3"
        d="M279.25,342.59c-8.79-7.33-12.19-6.75-12.19-6.75H240.65c-10.92,0-11,10.38-11,10.38v24.22h36.51a13.8,13.8,0,0,0,8.86-3.21l16.91-14.09Z" />
</svg>