<svg id="Camada_1" data-name="Camada 1" xmlns="http://www.w3.org/2000/svg" viewBox="0 0 500 500"><defs><style>.cls-1,.cls-3{fill:#31322d;}.cls-1,.cls-2{stroke:#31322d;stroke-miterlimit:30;stroke-width:4.03px;}.cls-2{fill:#fbf4e6;}</style></defs><ellipse class="cls-1" cx="252.83" cy="246.67" rx="140.76" ry="132.3"/><ellipse class="cls-2" cx="247.59" cy="236.46" rx="140.76" ry="132.3"/><path class="cls-3" d="M180.19,309.13V205h6l4.21,10.42a47.33,47.33,0,0,1,16.41-9.17,70.71,70.71,0,0,1,21.5-2.92q15.51,0,23.16,3.75t7.64,11.67v90.41h-14.4V214.34H217q-13.08,0-17.73,2.92t-4.65,11.25v80.62Zm64.5,0V205l10,10.42a47.29,47.29,0,0,1,16.4-9.17,70.75,70.75,0,0,1,21.5-2.92q15.51,0,23.16,3.75t7.65,11.67v90.41H309V214.34h-27.7q-13.08,0-17.73,2.92t-4.66,11.25v80.62Z"/><ellipse class="cls-3" cx="187.09" cy="178.11" rx="15.25" ry="14.33"/><ellipse class="cls-3" cx="247.59" cy="178.11" rx="15.25" ry="14.33"/><ellipse class="cls-3" cx="307.55" cy="178.11" rx="15.25" ry="14.33"/></svg>